<svg width="16.000000" height="16.000000" viewBox="0 0 16 16" fill="none" xmlns="http://www.w3.org/2000/svg" xmlns:xlink="http://www.w3.org/1999/xlink">
	<desc>
			Created with Pixso.
	</desc>
	<defs>
		<clipPath id="clip216_52">
			<rect id="cancel" rx="0.000000" width="15.000000" height="15.000000" transform="translate(0.500000 0.500000)" fill="white" fill-opacity="0"/>
		</clipPath>
	</defs>
	<g opacity="0.700000">
		<g clip-path="url(#clip216_52)">
			<g opacity="0.870000"/>
			<path id="Vector" d="M8 2C4.68 2 2 4.68 2 8C2 11.31 4.68 14 8 14C11.31 14 14 11.31 14 8C14 4.68 11.31 2 8 2ZM8 12.79C5.35 12.79 3.19 10.64 3.19 8C3.19 5.35 5.35 3.2 8 3.2C10.64 3.2 12.8 5.35 12.8 8C12.8 10.64 10.64 12.79 8 12.79ZM10.15 5L8 7.15L5.84 5L5 5.84L7.15 8L5 10.15L5.84 11L8 8.84L10.15 11L11 10.15L8.84 8L11 5.84L10.15 5Z" fill="#F06A4D" fill-opacity="1.000000" fill-rule="nonzero"/>
		</g>
	</g>
</svg>
