<svg width="16.000000" height="16.000000" viewBox="0 0 16 16" fill="none" xmlns="http://www.w3.org/2000/svg" xmlns:xlink="http://www.w3.org/1999/xlink">
	<defs/>
	<path id="fb" d="M8 0C3.59 0 0 3.6 0 8.04C0 12.06 2.92 15.39 6.75 16L6.75 10.37L4.71 10.37L4.71 8.04L6.75 8.04L6.75 6.27C6.75 4.25 7.94 3.14 9.77 3.14C10.64 3.14 11.55 3.3 11.55 3.3L11.55 5.28L10.55 5.28C9.55 5.28 9.24 5.9 9.24 6.53L9.24 8.04L11.47 8.04L11.11 10.37L9.24 10.37L9.24 16C11.13 15.7 12.84 14.73 14.08 13.27C15.32 11.81 16 9.96 16 8.04C16 3.6 12.4 0 8 0Z" fill="#9873FF" fill-opacity="1.000000" fill-rule="nonzero"/>
</svg>
