<svg width="13.333313" height="13.333252" viewBox="0 0 13.3333 13.3333" fill="none" xmlns="http://www.w3.org/2000/svg" xmlns:xlink="http://www.w3.org/1999/xlink">
	<defs/>
	<path id="Vector" d="M6.66 3.33C6.29 3.33 6 3.63 6 4L6 6L4 6C3.63 6 3.33 6.3 3.33 6.66C3.33 7.03 3.63 7.33 4 7.33L6 7.33L6 9.33C6 9.69 6.29 10 6.66 10C7.03 10 7.33 9.69 7.33 9.33L7.33 7.33L9.33 7.33C9.7 7.33 10 7.03 10 6.66C10 6.3 9.7 6 9.33 6L7.33 6L7.33 4C7.33 3.63 7.03 3.33 6.66 3.33ZM6.66 0C2.98 0 0 2.98 0 6.66C0 10.34 2.98 13.33 6.66 13.33C10.34 13.33 13.33 10.34 13.33 6.66C13.33 2.98 10.34 0 6.66 0ZM6.66 12C3.72 12 1.33 9.6 1.33 6.66C1.33 3.72 3.72 1.33 6.66 1.33C9.6 1.33 12 3.72 12 6.66C12 9.6 9.6 12 6.66 12Z" fill="#9873FF" fill-opacity="1.000000" fill-rule="nonzero"/>
</svg>
