<svg width="16.000000" height="16.000000" viewBox="0 0 16 16" fill="none" xmlns="http://www.w3.org/2000/svg" xmlns:xlink="http://www.w3.org/1999/xlink">
	<defs/>
	<path id="Vector" d="M8 0C3.58 0 0 3.58 0 8C0 12.41 3.58 16 8 16C12.41 16 16 12.41 16 8C16 3.58 12.41 0 8 0ZM12.05 8.86C12.43 9.22 12.82 9.57 13.16 9.97C13.3 10.15 13.44 10.33 13.55 10.54C13.7 10.83 13.56 11.16 13.3 11.17L11.66 11.17C11.24 11.21 10.9 11.04 10.62 10.75C10.39 10.52 10.18 10.27 9.96 10.03C9.87 9.93 9.78 9.84 9.67 9.77C9.44 9.62 9.25 9.67 9.12 9.9C8.99 10.14 8.96 10.4 8.95 10.67C8.93 11.05 8.81 11.15 8.43 11.17C7.6 11.21 6.81 11.09 6.08 10.67C5.44 10.3 4.94 9.78 4.5 9.19C3.66 8.04 3.01 6.78 2.43 5.49C2.29 5.2 2.39 5.04 2.71 5.03C3.25 5.02 3.78 5.02 4.32 5.03C4.53 5.04 4.68 5.16 4.76 5.37C5.05 6.08 5.41 6.75 5.85 7.38C5.97 7.55 6.09 7.72 6.26 7.83C6.45 7.96 6.6 7.92 6.69 7.71C6.74 7.57 6.77 7.43 6.78 7.29C6.82 6.79 6.83 6.3 6.75 5.8C6.71 5.5 6.53 5.3 6.23 5.24C6.07 5.21 6.09 5.15 6.17 5.06C6.3 4.91 6.43 4.81 6.67 4.81L8.52 4.81C8.82 4.87 8.88 5 8.92 5.29L8.92 7.35C8.92 7.47 8.98 7.8 9.18 7.88C9.35 7.93 9.46 7.8 9.55 7.7C10 7.22 10.31 6.67 10.6 6.09C10.72 5.84 10.83 5.58 10.94 5.31C11.01 5.12 11.13 5.02 11.35 5.03L13.14 5.03C13.19 5.03 13.24 5.03 13.3 5.04C13.6 5.09 13.68 5.22 13.59 5.51C13.44 5.97 13.15 6.36 12.88 6.74C12.58 7.15 12.26 7.55 11.97 7.96C11.7 8.34 11.72 8.53 12.05 8.86Z" fill="#9873FF" fill-opacity="1.000000" fill-rule="nonzero"/>
</svg>
